<?xml version="1.0" encoding="UTF-8"?>
<svg id="_레이어_2" data-name="레이어 2" xmlns="http://www.w3.org/2000/svg" viewBox="0 0 183.63 158.27">
  <defs>
    <style>
      .cls-1 {
        fill: #e0620e;
      }
    </style>
  </defs>
  <g id="_레이어_3" data-name="레이어 3">
    <g>
      <g>
        <path class="cls-1" d="M79.2,83.42h0c-2.45-3.79-.48-9.4,4.39-12.55l70.08-45.26c4.87-3.14,10.8-2.62,13.24,1.16h0c2.45,3.79.48,9.4-4.39,12.55l-70.08,45.26c-4.87,3.14-10.8,2.62-13.24-1.16Z"/>
        <g>
          <polygon class="cls-1" points="116.59 43.08 119.44 18.59 148.23 0 145.39 24.49 116.59 43.08"/>
          <polygon class="cls-1" points="131.35 65.93 154.84 73.41 183.63 54.82 160.14 47.34 131.35 65.93"/>
        </g>
      </g>
      <g>
        <path class="cls-1" d="M129.34,67.23l-16.06,10.37c5.96,20.06-1.66,42.45-20.13,54.37-22.44,14.49-52.37,8.05-66.86-14.39-14.49-22.44-8.05-52.37,14.39-66.86,18.47-11.93,42.01-9.66,57.84,4.02l16.06-10.37c-21.79-22.16-56.84-26.76-83.96-9.24C-.42,55.18-9.34,96.6,10.71,127.65c20.05,31.04,61.46,39.96,92.51,19.91,27.13-17.52,37.36-51.36,26.13-80.33Z"/>
        <path class="cls-1" d="M73.95,86.81c-4.14-6.41-1.04-15.52,7.06-20.75l.23-.15c-9.14-5.13-20.74-5.17-30.16.91-13.55,8.75-17.44,26.82-8.69,40.37,8.75,13.55,26.82,17.44,40.37,8.69,9.42-6.08,14.15-16.67,13.23-27.11l-.23.15c-8.09,5.23-17.68,4.3-21.81-2.1Z"/>
      </g>
    </g>
  </g>
</svg>