<?xml version="1.0" encoding="UTF-8"?>
<svg id="_레이어_2" data-name="레이어 2" xmlns="http://www.w3.org/2000/svg" viewBox="0 0 156.24 156.24">
  <defs>
    <style>
      .cls-1 {
        fill: #e0620e;
      }
    </style>
  </defs>
  <g id="_레이어_3" data-name="레이어 3">
    <g>
      <g>
        <path class="cls-1" d="M124.66,83.1H4.99c-2.75,0-4.99-2.23-4.99-4.98s2.23-4.98,4.99-4.98h119.67c2.75,0,4.99,2.23,4.99,4.98s-2.23,4.98-4.99,4.98Z"/>
        <path class="cls-1" d="M151.25,136.3h-86.43c-2.75,0-4.99-2.24-4.99-4.99s2.23-4.98,4.99-4.98h86.43c2.75,0,4.99,2.23,4.99,4.98s-2.23,4.99-4.99,4.99Z"/>
        <path class="cls-1" d="M151.25,29.92h-53.19c-2.75,0-4.99-2.23-4.99-4.98s2.23-4.99,4.99-4.99h53.19c2.75,0,4.99,2.24,4.99,4.99s-2.23,4.98-4.99,4.98Z"/>
        <path class="cls-1" d="M71.47,29.92H4.99c-2.75,0-4.99-2.23-4.99-4.98s2.23-4.99,4.99-4.99h66.48c2.75,0,4.99,2.24,4.99,4.99s-2.23,4.98-4.99,4.98Z"/>
        <path class="cls-1" d="M91.42,49.86h-13.3c-6.42,0-11.63-5.22-11.63-11.63V11.63c0-6.41,5.22-11.63,11.63-11.63h13.3c6.41,0,11.63,5.22,11.63,11.63v26.59c0,6.41-5.22,11.63-11.63,11.63ZM78.12,9.97c-.92,0-1.66.74-1.66,1.66v26.59c0,.92.75,1.67,1.66,1.67h13.3c.92,0,1.66-.75,1.66-1.67V11.63c0-.92-.75-1.66-1.66-1.66h-13.3Z"/>
        <path class="cls-1" d="M58.17,156.24h-13.3c-6.41,0-11.63-5.22-11.63-11.63v-26.59c0-6.41,5.22-11.63,11.63-11.63h13.3c6.41,0,11.64,5.22,11.64,11.63v26.59c0,6.41-5.22,11.63-11.64,11.63ZM44.88,116.35c-.92,0-1.66.75-1.66,1.67v26.59c0,.92.75,1.66,1.66,1.66h13.3c.92,0,1.66-.74,1.66-1.66v-26.59c0-.92-.75-1.67-1.66-1.67h-13.3Z"/>
        <path class="cls-1" d="M144.61,103.05h-13.3c-6.42,0-11.64-5.22-11.64-11.63v-26.6c0-6.41,5.22-11.63,11.64-11.63h13.3c6.41,0,11.63,5.22,11.63,11.63v26.6c0,6.41-5.22,11.63-11.63,11.63ZM131.31,63.16c-.92,0-1.66.74-1.66,1.66v26.6c0,.92.75,1.66,1.66,1.66h13.3c.92,0,1.66-.74,1.66-1.66v-26.6c0-.92-.75-1.66-1.66-1.66h-13.3Z"/>
        <path class="cls-1" d="M38.23,136.3H4.99c-2.75,0-4.99-2.24-4.99-4.99s2.23-4.98,4.99-4.98h33.24c2.76,0,4.99,2.23,4.99,4.98s-2.23,4.99-4.99,4.99Z"/>
      </g>
      <rect class="cls-1" x="80.65" y="14.91" width="8.23" height="20.05" rx=".36" ry=".36"/>
      <rect class="cls-1" x="133.84" y="68.1" width="8.23" height="20.05" rx=".36" ry=".36"/>
      <rect class="cls-1" x="47.41" y="121.28" width="8.23" height="20.05" rx=".36" ry=".36"/>
    </g>
  </g>
</svg>