<?xml version="1.0" encoding="UTF-8"?>
<svg id="_레이어_2" data-name="레이어 2" xmlns="http://www.w3.org/2000/svg" viewBox="0 0 171 177.06">
  <defs>
    <style>
      .cls-1 {
        fill: #e0620e;
      }
    </style>
  </defs>
  <g id="_레이어_3" data-name="레이어 3">
    <g>
      <path class="cls-1" d="M85.5,24.24c3.79,0,6.88-3.09,6.88-6.88V6.88c0-3.79-3.09-6.88-6.88-6.88s-6.88,3.09-6.88,6.88v10.48c0,3.79,3.09,6.88,6.88,6.88Z"/>
      <path class="cls-1" d="M46.4,34.72c1.2,0,2.39-.32,3.44-.92,3.29-1.9,4.42-6.12,2.52-9.4l-5.24-9.07c-1.23-2.12-3.51-3.44-5.96-3.44-1.2,0-2.39.32-3.44.92-3.29,1.9-4.42,6.11-2.52,9.4l5.24,9.07c1.23,2.12,3.51,3.44,5.96,3.44Z"/>
      <path class="cls-1" d="M25.59,50.5l-9.07-5.24c-1.05-.6-2.23-.92-3.44-.92-2.45,0-4.74,1.32-5.96,3.44-.92,1.59-1.16,3.45-.69,5.22s1.61,3.26,3.21,4.18l9.07,5.24c1.04.6,2.23.92,3.44.92,2.45,0,4.74-1.32,5.96-3.44,1.9-3.29.77-7.5-2.52-9.4Z"/>
      <path class="cls-1" d="M17.36,88.68H6.88c-3.79,0-6.88,3.09-6.88,6.88s3.09,6.88,6.88,6.88h10.48c3.79,0,6.88-3.09,6.88-6.88s-3.09-6.88-6.88-6.88Z"/>
      <path class="cls-1" d="M164.12,88.68h-10.48c-3.79,0-6.88,3.09-6.88,6.88s3.09,6.88,6.88,6.88h10.48c3.79,0,6.88-3.09,6.88-6.88s-3.09-6.88-6.88-6.88Z"/>
      <path class="cls-1" d="M152.29,62.42l9.07-5.24c3.29-1.9,4.42-6.11,2.52-9.4-1.23-2.12-3.51-3.44-5.96-3.44-1.2,0-2.39.32-3.44.92l-9.07,5.24c-1.59.92-2.73,2.4-3.21,4.18s-.23,3.63.69,5.22c1.23,2.12,3.51,3.44,5.96,3.44,1.2,0,2.39-.32,3.44-.92Z"/>
      <path class="cls-1" d="M133.28,12.8c-1.05-.6-2.23-.92-3.44-.92-2.45,0-4.74,1.32-5.96,3.44l-5.24,9.07c-1.9,3.29-.77,7.5,2.52,9.4,1.05.6,2.23.92,3.44.92,2.45,0,4.74-1.32,5.96-3.44l5.24-9.07c1.9-3.29.77-7.5-2.52-9.4Z"/>
      <path class="cls-1" d="M124.99,58.33c-9.1-11.72-24.02-18.72-39.92-18.72h0c-15.59,0-29.81,6.81-39.03,18.69-9.37,12.07-12.28,27.47-8.21,43.36,2.05,7.98,7.33,17.36,12.43,26.43,5.79,10.28,11.76,20.9,13.98,30.88h42.52c2.2-9.91,8.18-20.56,13.97-30.86,5.11-9.1,10.39-18.5,12.43-26.44,4.08-15.9,1.18-31.28-8.17-43.31h0ZM71.79,71.64c-6.64,5.74-14.49,7.54-17.54,4.02-3.05-3.52-.15-11.04,6.49-16.78,6.64-5.74,14.49-7.54,17.54-4.02,3.05,3.52.15,11.04-6.49,16.78Z"/>
      <path class="cls-1" d="M108.59,161.42h-46.18c-1.8,0-3.28,1.47-3.28,3.28s1.47,3.27,3.28,3.27h46.18c1.8,0,3.28-1.47,3.28-3.27s-1.47-3.28-3.28-3.28Z"/>
      <path class="cls-1" d="M108.59,170.51h-46.18c-1.8,0-3.28,1.47-3.28,3.28s1.47,3.27,3.28,3.27h46.18c1.8,0,3.28-1.47,3.28-3.27s-1.47-3.28-3.28-3.28Z"/>
    </g>
  </g>
</svg>