<?xml version="1.0" encoding="UTF-8"?>
<svg id="_레이어_2" data-name="레이어 2" xmlns="http://www.w3.org/2000/svg" viewBox="0 0 651.67 322.05">
  <defs>
    <style>
      .cls-1 {
        fill: #e0620e;
      }
    </style>
  </defs>
  <g id="_레이어_3" data-name="레이어 3">
    <g>
      <polygon class="cls-1" points="584.16 71.85 584.16 0 501.71 0 501.71 149.96 651.67 149.96 651.67 71.85 584.16 71.85"/>
      <circle class="cls-1" cx="420.17" cy="74.98" r="74.98"/>
      <polygon class="cls-1" points="206.06 0 202.99 0 170.42 56.42 137.84 0 129.83 0 0 0 0 149.96 105.26 149.96 105.26 93.54 137.84 149.96 202.99 149.96 235.57 93.54 235.57 149.96 340.97 149.96 340.97 0 206.06 0"/>
      <circle class="cls-1" cx="420.66" cy="247.07" r="74.98"/>
      <circle class="cls-1" cx="576.69" cy="247.07" r="74.98"/>
      <path class="cls-1" d="M334.26,216.76c-4.13-8.87-9.95-16.82-17.31-23.63-14.45-13.37-33.84-21.04-53.19-21.04H0v149.96h263.75c9.97,0,19.77-1.92,29.13-5.72,9.04-3.67,17.23-8.9,24.33-15.55,7.3-6.84,13.08-14.81,17.16-23.7,4.38-9.53,6.6-19.65,6.6-30.08s-2.26-20.67-6.71-30.24ZM69.01,257.38v-20.62h17.35v20.62h-17.35ZM269.69,238.49c1.17,1.29,3.14,4.12,3.14,8.51,0,6.95-4.95,11.39-8.36,11.39H105.91v-22.64h158.56c1.71,0,3.66,1.03,5.22,2.74Z"/>
    </g>
  </g>
</svg>