<?xml version="1.0" encoding="UTF-8"?>
<svg id="_레이어_2" data-name="레이어 2" xmlns="http://www.w3.org/2000/svg" viewBox="0 0 764.94 378.03">
  <defs>
    <style>
      .cls-1 {
        fill: #c4c4c4;
      }
    </style>
  </defs>
  <g id="_레이어_1-2" data-name="레이어 1">
    <g>
      <polygon class="cls-1" points="685.69 84.34 685.69 0 588.91 0 588.91 176.03 764.94 176.03 764.94 84.34 685.69 84.34"/>
      <circle class="cls-1" cx="493.2" cy="88.01" r="88.01"/>
      <polygon class="cls-1" points="241.87 0 238.28 0 200.04 66.23 161.8 0 152.4 0 0 0 0 176.03 123.56 176.03 123.56 109.79 161.8 176.03 238.28 176.03 276.52 109.79 276.52 176.03 400.24 176.03 400.24 0 241.87 0"/>
      <circle class="cls-1" cx="493.78" cy="290.01" r="88.01"/>
      <circle class="cls-1" cx="676.93" cy="290.01" r="88.01"/>
      <path class="cls-1" d="M392.36,254.44c-4.85-10.41-11.68-19.75-20.32-27.74-16.96-15.7-39.72-24.7-62.44-24.7H0v176.03h309.6c11.71,0,23.21-2.26,34.19-6.71,10.61-4.3,20.22-10.44,28.56-18.25,8.57-8.02,15.35-17.39,20.14-27.83,5.14-11.19,7.74-23.07,7.74-35.31s-2.65-24.26-7.88-35.49ZM81,302.12v-24.21h20.37v24.21h-20.37ZM316.57,279.94c1.38,1.52,3.69,4.83,3.69,9.99,0,8.16-5.81,13.37-9.81,13.37H124.32v-26.58h186.13c2,0,4.29,1.2,6.12,3.22Z"/>
    </g>
  </g>
</svg>