<?xml version="1.0" encoding="UTF-8"?>
<svg id="_레이어_2" data-name="레이어 2" xmlns="http://www.w3.org/2000/svg" viewBox="0 0 220.38 150.09">
  <defs>
    <style>
      .cls-1 {
        fill: #e0620e;
      }
    </style>
  </defs>
  <g id="_레이어_3" data-name="레이어 3">
    <g>
      <path class="cls-1" d="M92.84,39.64l-28.89,107.01c-.55,2.02,1.3,3.88,3.33,3.34l107.12-28.49c2.03-.54,2.71-3.07,1.23-4.56L97.4,38.43c-1.48-1.49-4.01-.81-4.56,1.21Z"/>
      <circle class="cls-1" cx="30.68" cy="71.52" r="30.68"/>
      <path class="cls-1" d="M182.08,13.09l14.37-13.09.91,19.42c.09,1.95,1.65,3.51,3.6,3.6l19.42.91-13.09,14.37c-1.31,1.44-1.31,3.65,0,5.09l13.09,14.37-19.42.91c-1.95.09-3.51,1.65-3.6,3.6l-.91,19.42-14.37-13.09c-1.44-1.31-3.65-1.31-5.09,0l-14.37,13.09-.91-19.42c-.09-1.95-1.65-3.51-3.6-3.6l-19.42-.91,13.09-14.37c1.31-1.44,1.31-3.65,0-5.09l-13.09-14.37,19.42-.91c1.95-.09,3.51-1.65,3.6-3.6L162.62,0l14.37,13.09c1.44,1.31,3.65,1.31,5.09,0Z"/>
    </g>
  </g>
</svg>