<?xml version="1.0" encoding="UTF-8"?>
<svg id="_레이어_2" data-name="레이어 2" xmlns="http://www.w3.org/2000/svg" viewBox="0 0 99.99 183.27">
  <defs>
    <style>
      .cls-1 {
        fill: #e0620e;
      }
    </style>
  </defs>
  <g id="_레이어_3" data-name="레이어 3">
    <g>
      <path class="cls-1" d="M83.78,183.27H16.21c-8.94,0-16.21-7.27-16.21-16.21V16.21C0,7.27,7.27,0,16.21,0h67.57c8.94,0,16.21,7.27,16.21,16.21v150.85c0,8.94-7.27,16.21-16.21,16.21ZM16.21,4.16c-6.64,0-12.05,5.41-12.05,12.05v150.85c0,6.64,5.41,12.05,12.05,12.05h67.57c6.64,0,12.05-5.41,12.05-12.05V16.21c0-6.64-5.41-12.05-12.05-12.05H16.21Z"/>
      <path class="cls-1" d="M82.31,8.99H17.67c-4.53,0-8.21,3.67-8.21,8.21v148.88c0,4.53,3.67,8.21,8.21,8.21h64.64c4.53,0,8.21-3.67,8.21-8.21V17.2c0-4.53-3.67-8.21-8.21-8.21ZM66.5,22.51h-33c-2.21,0-4.03-1.81-4.03-4.02s1.81-4.03,4.03-4.03h33c2.21,0,4.02,1.81,4.02,4.03s-1.81,4.02-4.02,4.02Z"/>
    </g>
  </g>
</svg>