<?xml version="1.0" encoding="UTF-8"?>
<svg id="_레이어_2" data-name="레이어 2" xmlns="http://www.w3.org/2000/svg" viewBox="0 0 168.79 126.59">
  <defs>
    <style>
      .cls-1 {
        fill: #e0620e;
      }
    </style>
  </defs>
  <g id="_레이어_3" data-name="레이어 3">
    <g>
      <path class="cls-1" d="M165.95,7.88c-1.74-.94-3.87-.84-5.53.27l-34.72,23.31v-11.57c0-10.97-8.86-19.89-19.75-19.89H19.75C8.86,0,0,8.92,0,19.89v86.81c0,10.97,8.86,19.89,19.75,19.89h86.19c10.89,0,19.75-8.92,19.75-19.89v-11.57l34.72,23.31c.9.6,1.94.91,2.99.91.88,0,1.75-.21,2.54-.64,1.75-.94,2.84-2.78,2.84-4.78V12.66c0-2-1.1-3.84-2.84-4.78ZM36.09,48.64c-8.76,0-15.87-7.1-15.87-15.87s7.1-15.87,15.87-15.87,15.87,7.1,15.87,15.87-7.1,15.87-15.87,15.87Z"/>
      <circle class="cls-1" cx="36.09" cy="32.77" r="7.8"/>
    </g>
  </g>
</svg>